<svg xmlns="http://www.w3.org/2000/svg" xmlns:xlink="http://www.w3.org/1999/xlink" width="512" height="512" viewBox="0 0 512 512">
  <defs>
    <linearGradient id="bg-grad" x1="99.87820251299121%" y1="46.51217631279373%" x2="0.12179748700879145%" y2="53.48782368720627%">
        <stop offset="0%" stop-color="#4D4A4A"/>
        <stop offset="100%" stop-color="#1a7450"/>
      </linearGradient>
    <clipPath id="canvas-clip">
      <rect width="512" height="512" rx="150" ry="150"/>
    </clipPath>
  </defs>
  <rect width="512" height="512" rx="150" ry="150" fill="url(#bg-grad)"  clip-path="url(#canvas-clip)"/>
  <g clip-path="url(#canvas-clip)">
    <g transform="rotate(0, 256, 256)">
      
      <g transform="translate(103 103) scale(1.19921875 1.19921875) translate(0 0)"><path fill="#FFFFFF" d="m239.43 133l-32-80a8 8 0 0 0-7.43-5a8.3 8.3 0 0 0-1.73.21L136 62V40a8 8 0 0 0-16 0v25.58L54.27 80.21a8 8 0 0 0-5.7 4.79l-32 80a7.9 7.9 0 0 0-.57 3c0 23.31 24.54 32 40 32s40-8.69 40-32a7.9 7.9 0 0 0-.57-3L66.92 93.77L120 82v126h-16a8 8 0 0 0 0 16h48a8 8 0 0 0 0-16h-16V78.42l51-11.32l-26.43 65.9a7.9 7.9 0 0 0-.57 3c0 23.31 24.54 32 40 32s40-8.69 40-32a7.9 7.9 0 0 0-.57-3m-160 35H32.62L56 109.54Zm97.24-32L200 77.54L223.38 136Z"/></g>
    </g>
  </g>
</svg>